<svg width="24" height="14" viewBox="0 0 24 14" fill="none" xmlns="http://www.w3.org/2000/svg">
<path d="M17.25 0.25H6.75C3.02812 0.25 0 3.27812 0 7C0 10.7219 3.02812 13.75 6.75 13.75H17.25C20.9719 13.75 24 10.7219 24 7C24 3.27812 20.9719 0.25 17.25 0.25ZM17.25 12.25C16.2116 12.25 15.1966 11.9421 14.3333 11.3652C13.4699 10.7883 12.797 9.9684 12.3996 9.00909C12.0023 8.04978 11.8983 6.99418 12.1009 5.97578C12.3034 4.95738 12.8035 4.02192 13.5377 3.28769C14.2719 2.55346 15.2074 2.05345 16.2258 1.85088C17.2442 1.64831 18.2998 1.75227 19.2591 2.14963C20.2184 2.54699 21.0383 3.2199 21.6152 4.08326C22.1921 4.94661 22.5 5.96165 22.5 7C22.4985 8.39193 21.9449 9.72642 20.9607 10.7107C19.9764 11.6949 18.6419 12.2485 17.25 12.25Z" fill="black"/>
</svg>
