<svg width="20" height="21" viewBox="0 0 20 21" fill="none" xmlns="http://www.w3.org/2000/svg">
<path fill-rule="evenodd" clip-rule="evenodd" d="M3.49159 6.55183C4.94992 5.14766 7.09742 3.8335 9.99992 3.8335C12.9024 3.8335 15.0499 5.14766 16.5083 6.55183C17.5298 7.54364 18.3754 8.70178 19.0091 9.97683C19.1699 10.3093 19.1699 10.691 19.0091 11.0227C18.3758 12.2979 17.5304 13.4564 16.5091 14.4485C15.0499 15.8527 12.9024 17.1668 9.99992 17.1668C7.09742 17.1668 4.94992 15.8527 3.49159 14.4485C2.47006 13.4567 1.62443 12.2985 0.990753 11.0235C0.911528 10.8606 0.870361 10.6818 0.870361 10.5006C0.870361 10.3194 0.911528 10.1406 0.990753 9.97766C1.62409 8.7024 2.47028 7.54398 3.49159 6.55183ZM9.99992 13.0002C10.663 13.0002 11.2988 12.7368 11.7677 12.2679C12.2365 11.7991 12.4999 11.1632 12.4999 10.5002C12.4999 9.83712 12.2365 9.20124 11.7677 8.7324C11.2988 8.26355 10.663 8.00016 9.99992 8.00016C9.33688 8.00016 8.70099 8.26355 8.23215 8.7324C7.76331 9.20124 7.49992 9.83712 7.49992 10.5002C7.49992 11.1632 7.76331 11.7991 8.23215 12.2679C8.70099 12.7368 9.33688 13.0002 9.99992 13.0002Z" fill="#FFEEEE"/>
</svg>
