<svg width="24" height="14" viewBox="0 0 24 14" fill="none" xmlns="http://www.w3.org/2000/svg">
<path d="M6.75 13.75L17.25 13.75C20.9719 13.75 24 10.7219 24 7C24 3.27812 20.9719 0.25 17.25 0.25L6.75 0.25C3.02813 0.25 0 3.27812 0 7C0 10.7219 3.02813 13.75 6.75 13.75ZM6.75 1.75C7.78835 1.75 8.80339 2.05791 9.66674 2.63478C10.5301 3.21166 11.203 4.0316 11.6004 4.99091C11.9977 5.95022 12.1017 7.00582 11.8991 8.02422C11.6966 9.04262 11.1965 9.97808 10.4623 10.7123C9.72809 11.4465 8.79263 11.9466 7.77423 12.1491C6.75583 12.3517 5.70023 12.2477 4.74091 11.8504C3.7816 11.453 2.96166 10.7801 2.38478 9.91674C1.80791 9.05339 1.5 8.03835 1.5 7C1.50149 5.60807 2.05509 4.27358 3.03933 3.28933C4.02358 2.30509 5.35807 1.75149 6.75 1.75Z" fill="black"/>
</svg>
