<svg width="17" height="17" viewBox="0 0 17 17" fill="none" xmlns="http://www.w3.org/2000/svg">
<path d="M13.6572 12.9052C13.7065 12.9546 13.7457 13.0132 13.7724 13.0776C13.7991 13.1421 13.8128 13.2113 13.8128 13.2811C13.8128 13.3509 13.7991 13.42 13.7724 13.4845C13.7457 13.549 13.7065 13.6076 13.6572 13.6569C13.6078 13.7063 13.5492 13.7454 13.4847 13.7721C13.4202 13.7989 13.3511 13.8126 13.2813 13.8126C13.2115 13.8126 13.1424 13.7989 13.0779 13.7721C13.0134 13.7454 12.9548 13.7063 12.9054 13.6569L8.50005 9.25086L4.09466 13.6569C3.99498 13.7566 3.85978 13.8126 3.7188 13.8126C3.57783 13.8126 3.44263 13.7566 3.34294 13.6569C3.24326 13.5572 3.18726 13.422 3.18726 13.2811C3.18726 13.1401 3.24326 13.0049 3.34294 12.9052L7.749 8.49981L3.34294 4.09442C3.24326 3.99473 3.18726 3.85953 3.18726 3.71856C3.18726 3.57758 3.24326 3.44238 3.34294 3.3427C3.44263 3.24301 3.57783 3.18701 3.7188 3.18701C3.85978 3.18701 3.99498 3.24301 4.09466 3.3427L8.50005 7.74875L12.9054 3.3427C13.0051 3.24301 13.1403 3.18701 13.2813 3.18701C13.4223 3.18701 13.5575 3.24301 13.6572 3.3427C13.7568 3.44238 13.8128 3.57758 13.8128 3.71856C13.8128 3.85953 13.7568 3.99473 13.6572 4.09442L9.25111 8.49981L13.6572 12.9052Z" fill="black"/>
</svg>
