<svg width="16" height="17" viewBox="0 0 16 17" fill="none" xmlns="http://www.w3.org/2000/svg">
<path d="M16 3.923V14.885C16 15.345 15.846 15.7293 15.538 16.038C15.23 16.3467 14.8453 16.5007 14.384 16.5H1.616C1.15533 16.5 0.771 16.346 0.463 16.038C0.155 15.73 0.000666667 15.3453 0 14.884V2.116C0 1.65533 0.154333 1.271 0.463 0.963C0.771667 0.655 1.156 0.500667 1.616 0.5H12.577L16 3.923ZM7.996 13.038C8.55 13.038 9.02233 12.844 9.413 12.456C9.80367 12.068 9.99933 11.597 10 11.043C10.0007 10.489 9.80667 10.0163 9.418 9.625C9.02933 9.23367 8.55833 9.03833 8.005 9.039C7.45167 9.03967 6.97867 9.23333 6.586 9.62C6.19333 10.0067 5.998 10.4783 6 11.035C6.002 11.5917 6.196 12.0643 6.582 12.453C6.968 12.8417 7.43933 13.0373 7.996 13.04M2.769 6.27H10.192V3.27H2.77L2.769 6.27Z" fill="#F2F2F2"/>
</svg>
